<svg xmlns="http://www.w3.org/2000/svg" width="512" height="512" viewBox="0 0 512 512" version="1.1"><path d="M 28.500 1.398 C 17.302 4.961, 8.523 12.571, 3.582 22.997 L 0.500 29.500 0.500 256 L 0.500 482.500 3.587 489 C 7.509 497.259, 14.644 504.385, 23 508.387 L 29.500 511.500 256 511.500 L 482.500 511.500 489.003 508.418 C 492.659 506.685, 497.650 503.192, 500.404 500.438 C 505.095 495.748, 510.998 485.368, 510.999 481.809 C 511 480.879, 511.450 479.840, 512 479.500 C 512.662 479.091, 513 403.137, 513 254.882 C 513 105.803, 512.666 31.089, 512 31.500 C 511.450 31.840, 511 31.304, 510.999 30.309 C 510.998 26.645, 505.162 16.320, 500.404 11.562 C 497.650 8.808, 492.659 5.315, 489.003 3.582 L 482.500 0.500 257.500 0.312 C 77.696 0.163, 31.697 0.381, 28.500 1.398 M 30.168 22.146 C 27.633 23.401, 24.730 25.962, 23.168 28.322 L 20.500 32.353 20.237 139.177 L 19.973 246 132.987 246 L 246 246 246 133 L 246 20 140.250 20.001 L 34.500 20.002 30.168 22.146 M 266 133 L 266 246 379 246 L 492 246 492 139.696 L 492 33.392 489.113 28.840 C 487.195 25.814, 484.742 23.569, 481.798 22.144 L 477.369 20 371.684 20 L 266 20 266 133 M 0.491 256 C 0.491 379.475, 0.608 429.987, 0.750 368.250 C 0.892 306.512, 0.892 205.487, 0.750 143.750 C 0.608 82.012, 0.491 132.525, 0.491 256 M 90.500 81.074 C 74.624 87.673, 63.949 102.689, 64.044 118.287 C 64.117 130.366, 68.786 139.487, 81.146 151.701 C 95.465 165.851, 126.584 187.003, 133.073 186.996 C 135.613 186.994, 139.559 185.058, 148.319 179.515 C 173.652 163.486, 191.061 147.888, 198 135 C 201.333 128.810, 201.500 128.024, 201.500 118.500 C 201.500 109.501, 201.211 107.911, 198.612 102.612 C 194.917 95.079, 185.921 86.083, 178.388 82.388 C 173.089 79.789, 171.499 79.500, 162.500 79.500 C 153.785 79.500, 151.778 79.839, 146.880 82.135 C 143.789 83.585, 139.401 86.449, 137.130 88.502 L 133 92.233 129.036 88.651 C 121.645 81.974, 115.697 79.662, 105 79.309 C 97.167 79.050, 94.623 79.360, 90.500 81.074 M 331.888 82.500 C 328.622 84.275, 326.550 89.062, 327.461 92.731 C 327.894 94.476, 335.039 102.431, 346.789 114.250 L 365.431 133 346.789 151.750 C 335.039 163.569, 327.894 171.524, 327.461 173.269 C 325.882 179.630, 332.321 186.131, 338.644 184.561 C 340.500 184.100, 348.069 177.321, 360.250 165.211 L 379 146.569 397.750 165.211 C 409.931 177.321, 417.500 184.100, 419.356 184.561 C 425.679 186.131, 432.118 179.630, 430.539 173.269 C 430.106 171.524, 422.961 163.569, 411.211 151.750 L 392.569 133 411.211 114.250 C 423.321 102.069, 430.100 94.500, 430.561 92.644 C 432.131 86.321, 425.630 79.882, 419.269 81.461 C 417.524 81.894, 409.565 89.043, 397.738 100.802 L 378.975 119.455 360.738 101.334 C 350.707 91.368, 341.517 82.715, 340.316 82.107 C 337.448 80.654, 335.082 80.764, 331.888 82.500 M 95.500 99.567 C 91.330 101.728, 86.368 106.704, 84.539 110.560 C 82.430 115.004, 82.600 122.296, 84.919 126.842 C 89.362 135.551, 102.436 147.165, 122.750 160.447 L 133 167.149 143.250 160.447 C 163.745 147.046, 176.635 135.556, 181.188 126.631 C 184.073 120.976, 183.395 112.517, 179.664 107.627 C 174.531 100.897, 170.456 98.585, 163.110 98.235 C 152.890 97.749, 149.692 100.145, 140.494 115.177 C 136.656 121.449, 129.344 121.449, 125.506 115.177 C 116.784 100.923, 113.169 98.040, 104 98.023 C 100.958 98.017, 97.159 98.707, 95.500 99.567 M 20 371.684 C 20 477.337, 20.001 477.370, 22.121 481.750 C 23.399 484.390, 25.855 487.199, 28.298 488.816 L 32.353 491.500 139.177 491.763 L 246 492.027 246.006 458.763 C 246.011 423.953, 246.494 419.169, 250.261 416.529 C 253.065 414.566, 258.935 414.566, 261.739 416.529 C 265.506 419.169, 265.989 423.953, 265.994 458.763 L 266 492.027 372.823 491.763 L 479.647 491.500 483.702 488.816 C 486.145 487.199, 488.601 484.390, 489.879 481.750 C 491.999 477.370, 492 477.337, 492 371.684 L 492 266 379 266 L 266 266 265.994 299.250 C 265.989 334.046, 265.506 338.832, 261.739 341.471 C 258.935 343.434, 253.065 343.434, 250.261 341.471 C 246.494 338.832, 246.011 334.046, 246.006 299.250 L 246 266 133 266 L 20 266 20 371.684 M 336.500 327.074 C 320.624 333.673, 309.949 348.689, 310.044 364.287 C 310.117 376.366, 314.786 385.487, 327.146 397.701 C 341.465 411.851, 372.584 433.003, 379.073 432.996 C 381.613 432.994, 385.559 431.058, 394.319 425.515 C 419.652 409.486, 437.061 393.888, 444 381 C 447.333 374.810, 447.500 374.024, 447.500 364.500 C 447.500 355.501, 447.211 353.911, 444.612 348.612 C 440.917 341.079, 431.921 332.083, 424.388 328.388 C 419.089 325.789, 417.499 325.500, 408.500 325.500 C 399.785 325.500, 397.778 325.839, 392.880 328.135 C 389.789 329.585, 385.401 332.449, 383.130 334.502 L 379 338.233 375.036 334.651 C 367.645 327.974, 361.697 325.662, 351 325.309 C 343.167 325.050, 340.623 325.360, 336.500 327.074 M 85.888 328.500 C 82.622 330.275, 80.550 335.062, 81.461 338.731 C 81.894 340.476, 89.039 348.431, 100.789 360.250 L 119.431 379 100.789 397.750 C 89.039 409.569, 81.894 417.524, 81.461 419.269 C 79.882 425.630, 86.321 432.131, 92.644 430.561 C 94.500 430.100, 102.069 423.321, 114.250 411.211 L 133 392.569 151.750 411.211 C 163.931 423.321, 171.500 430.100, 173.356 430.561 C 179.679 432.131, 186.118 425.630, 184.539 419.269 C 184.106 417.524, 176.961 409.569, 165.211 397.750 L 146.569 379 165.211 360.250 C 177.321 348.069, 184.100 340.500, 184.561 338.644 C 186.131 332.321, 179.630 325.882, 173.269 327.461 C 171.524 327.894, 163.565 335.043, 151.738 346.802 L 132.975 365.455 114.738 347.334 C 104.707 337.368, 95.517 328.715, 94.316 328.107 C 91.448 326.654, 89.082 326.764, 85.888 328.500 M 341.500 345.567 C 337.330 347.728, 332.368 352.704, 330.539 356.560 C 328.430 361.004, 328.600 368.296, 330.919 372.842 C 335.362 381.551, 348.436 393.165, 368.750 406.447 L 379 413.149 389.250 406.447 C 409.745 393.046, 422.635 381.556, 427.188 372.631 C 430.073 366.976, 429.395 358.517, 425.664 353.627 C 420.531 346.897, 416.456 344.585, 409.110 344.235 C 398.890 343.749, 395.692 346.145, 386.494 361.177 C 385.390 362.981, 383.253 364.891, 381.744 365.421 C 377.888 366.777, 373.929 365.136, 371.506 361.177 C 362.784 346.923, 359.169 344.040, 350 344.023 C 346.958 344.017, 343.159 344.707, 341.500 345.567 M 249.455 372.455 C 247.648 374.261, 247 375.990, 247 379 C 247 384.629, 250.371 388, 256 388 C 261.629 388, 265 384.629, 265 379 C 265 373.371, 261.629 370, 256 370 C 252.990 370, 251.261 370.648, 249.455 372.455" stroke="none" fill="#000000" fill-rule="evenodd"/><path d="M 98.864 99.436 C 93.369 101.325, 89.277 104.671, 86.347 109.671 C 78.580 122.924, 88.046 136.051, 121.455 158.354 C 126.930 162.009, 132.128 165, 133.004 165 C 134.730 165, 155.599 151.208, 162.793 145.313 C 175.762 134.687, 182.137 125.911, 182.248 118.531 C 182.396 108.736, 171.965 98.546, 162.021 98.772 C 153.799 98.960, 147.803 103.578, 143.059 113.378 C 138.160 123.497, 127.840 123.497, 122.941 113.378 C 117.262 101.646, 108.013 96.291, 98.864 99.436 M 344.864 345.436 C 339.369 347.325, 335.277 350.671, 332.347 355.671 C 324.580 368.924, 334.046 382.051, 367.455 404.354 C 372.930 408.009, 378.128 411, 379.004 411 C 380.730 411, 401.599 397.208, 408.793 391.313 C 421.762 380.687, 428.137 371.911, 428.248 364.531 C 428.396 354.736, 417.965 344.546, 408.021 344.772 C 399.799 344.960, 393.803 349.578, 389.059 359.378 C 384.160 369.497, 373.840 369.497, 368.941 359.378 C 363.262 347.646, 354.013 342.291, 344.864 345.436" stroke="none" fill="#eefaff" fill-rule="evenodd"/><path d="M 266 133 L 266 246 379 246 L 492 246 491.994 142.250 C 491.991 69.339, 491.659 37.312, 490.879 34.503 C 489.431 29.286, 482.714 22.569, 477.497 21.121 C 474.688 20.341, 442.661 20.009, 369.750 20.006 L 266 20 266 133 M 332.213 81.507 C 328.315 83.200, 325.630 88.598, 326.615 92.758 C 327.026 94.494, 334.082 102.379, 345.848 114.250 L 364.431 133 345.848 151.750 C 334.082 163.621, 327.026 171.506, 326.615 173.242 C 325.023 179.965, 332.035 186.977, 338.758 185.385 C 340.494 184.974, 348.379 177.918, 360.250 166.152 L 379 147.569 397.750 166.152 C 409.621 177.918, 417.506 184.974, 419.242 185.385 C 420.852 185.766, 423.446 185.423, 425.528 184.553 C 429.687 182.815, 432.407 177.561, 431.385 173.242 C 430.974 171.506, 423.918 163.621, 412.152 151.750 L 393.569 133 412.152 114.250 C 423.918 102.379, 430.974 94.494, 431.385 92.758 C 432.977 86.035, 425.965 79.023, 419.242 80.615 C 417.506 81.026, 409.618 88.086, 397.738 99.860 L 378.975 118.455 360.738 100.276 C 344.974 84.563, 339.272 79.863, 336.185 80.039 C 335.808 80.061, 334.021 80.721, 332.213 81.507 M 20.006 369.750 C 20.009 442.661, 20.341 474.688, 21.121 477.497 C 22.569 482.714, 29.286 489.431, 34.503 490.879 C 37.312 491.659, 69.339 491.991, 142.250 491.994 L 246 492 246 455.923 L 246 419.846 248.923 416.923 C 250.531 415.315, 252.781 414, 253.923 414 C 255.915 414, 256 413.488, 256 401.500 C 256 389.512, 255.915 389, 253.923 389 C 252.781 389, 250.531 387.685, 248.923 386.077 C 244.807 381.961, 244.807 376.039, 248.923 371.923 C 250.531 370.315, 252.781 369, 253.923 369 C 255.915 369, 256 368.488, 256 356.500 C 256 344.512, 255.915 344, 253.923 344 C 252.781 344, 250.531 342.685, 248.923 341.077 L 246 338.154 246 302.077 L 246 266 133 266 L 20 266 20.006 369.750 M 86.213 327.507 C 82.315 329.200, 79.630 334.598, 80.615 338.758 C 81.026 340.494, 88.082 348.379, 99.848 360.250 L 118.431 379 99.848 397.750 C 88.082 409.621, 81.026 417.506, 80.615 419.242 C 79.023 425.965, 86.035 432.977, 92.758 431.385 C 94.494 430.974, 102.379 423.918, 114.250 412.152 L 133 393.569 151.750 412.152 C 163.621 423.918, 171.506 430.974, 173.242 431.385 C 179.965 432.977, 186.977 425.965, 185.385 419.242 C 184.974 417.506, 177.918 409.621, 166.152 397.750 L 147.569 379 166.152 360.250 C 177.918 348.379, 184.974 340.494, 185.385 338.758 C 186.977 332.035, 179.965 325.023, 173.242 326.615 C 171.506 327.026, 163.618 334.086, 151.738 345.860 L 132.975 364.455 114.738 346.276 C 98.974 330.563, 93.272 325.863, 90.185 326.039 C 89.808 326.061, 88.021 326.721, 86.213 327.507" stroke="none" fill="#8bf2cf" fill-rule="evenodd"/><path d="M 33.211 21.129 C 28.754 22.414, 22.366 29.021, 21.071 33.685 C 20.356 36.258, 20.009 71.440, 20.006 141.750 L 20 246 133 246 L 246 246 246 133 L 246 20 141.250 20.090 C 78.487 20.144, 35.182 20.561, 33.211 21.129 M 95.281 78.970 C 88.985 80.466, 81.058 85.160, 75.587 90.631 C 61.983 104.234, 59.456 121.954, 68.833 137.987 C 75.337 149.108, 93.105 164.590, 116.418 179.450 C 128.992 187.464, 131.564 188.577, 135.332 187.631 C 138.565 186.820, 159.620 173.280, 170.584 164.962 C 181.021 157.043, 193.323 144.560, 197.167 137.987 C 206.551 121.942, 204.018 104.236, 190.391 90.609 C 174.543 74.760, 151.642 74.007, 135.750 88.812 L 133 91.374 130.250 88.812 C 120.911 80.112, 106.977 76.190, 95.281 78.970 M 266 301.050 C 266 340.168, 265.899 340.822, 259.510 343.133 L 256 344.402 256 356.500 L 256 368.598 259.510 369.867 C 263.148 371.183, 266 375.196, 266 379 C 266 382.804, 263.148 386.817, 259.510 388.133 L 256 389.402 256 401.500 L 256 413.598 259.510 414.867 C 265.899 417.178, 266 417.831, 266 456.968 L 266 492.035 372.323 491.768 L 478.647 491.500 482.700 488.817 C 484.930 487.342, 487.822 484.417, 489.127 482.317 L 491.500 478.500 491.768 372.250 L 492.035 266 379.018 266 L 266 266 266 301.050 M 341.281 324.970 C 334.985 326.466, 327.058 331.160, 321.587 336.631 C 307.983 350.234, 305.456 367.954, 314.833 383.987 C 321.337 395.108, 339.105 410.590, 362.418 425.450 C 374.992 433.464, 377.564 434.577, 381.332 433.631 C 384.565 432.820, 405.620 419.280, 416.584 410.962 C 427.021 403.043, 439.323 390.560, 443.167 383.987 C 452.551 367.942, 450.018 350.236, 436.391 336.609 C 420.543 320.760, 397.642 320.007, 381.750 334.812 L 379 337.374 376.250 334.812 C 366.911 326.112, 352.977 322.190, 341.281 324.970" stroke="none" fill="#ffa2c3" fill-rule="evenodd"/><path d="M 100.768 78.725 C 102.565 78.947, 105.265 78.943, 106.768 78.715 C 108.271 78.486, 106.800 78.304, 103.500 78.310 C 100.200 78.315, 98.971 78.502, 100.768 78.725 M 159.768 78.725 C 161.565 78.947, 164.265 78.943, 165.768 78.715 C 167.271 78.486, 165.800 78.304, 162.500 78.310 C 159.200 78.315, 157.971 78.502, 159.768 78.725 M 360.750 101 L 379 119.493 397.250 101 L 415.500 82.507 397.250 100.493 L 379 118.479 360.750 100.493 L 342.500 82.507 360.750 101 M 129.750 89.004 L 133 92.462 136.250 89.004 L 139.500 85.546 136.250 88.460 L 133 91.374 129.750 88.460 L 126.500 85.546 129.750 89.004 M 346.493 114.750 L 364.479 133 346.493 151.250 L 328.507 169.500 347 151.250 L 365.493 133 347 114.750 L 328.507 96.500 346.493 114.750 M 410.497 115.003 L 392.514 133.007 411.003 151.253 L 429.493 169.500 411.507 151.250 L 393.521 133 411.500 115 C 421.389 105.100, 429.254 97, 428.979 97 C 428.704 97, 420.387 105.102, 410.497 115.003 M 88.946 104.750 L 85.500 108.500 89.250 105.054 C 91.313 103.158, 93 101.471, 93 101.304 C 93 100.540, 92.154 101.260, 88.946 104.750 M 176 104.500 C 177.866 106.425, 179.617 108, 179.892 108 C 180.167 108, 178.866 106.425, 177 104.500 C 175.134 102.575, 173.383 101, 173.108 101 C 172.833 101, 174.134 102.575, 176 104.500 M 123.030 112.694 C 123.014 113.351, 124.013 114.948, 125.250 116.243 C 126.487 117.538, 127 117.901, 126.390 117.049 C 125.779 116.197, 124.781 114.600, 124.170 113.500 C 123.560 112.400, 123.047 112.037, 123.030 112.694 M 140.224 115.792 L 137.947 119.500 140.474 116.694 C 141.863 115.151, 143 113.464, 143 112.944 C 143 111.474, 142.663 111.820, 140.224 115.792 M 63.310 118.500 C 63.315 121.800, 63.502 123.029, 63.725 121.232 C 63.947 119.435, 63.943 116.735, 63.715 115.232 C 63.486 113.729, 63.304 115.200, 63.310 118.500 M 202.310 118.500 C 202.315 121.800, 202.502 123.029, 202.725 121.232 C 202.947 119.435, 202.943 116.735, 202.715 115.232 C 202.486 113.729, 202.304 115.200, 202.310 118.500 M 94 138.500 C 96.987 141.525, 99.657 144, 99.932 144 C 100.207 144, 97.987 141.525, 95 138.500 C 92.013 135.475, 89.343 133, 89.068 133 C 88.793 133, 91.013 135.475, 94 138.500 M 170.966 138.750 L 165.500 144.500 171.250 139.034 C 176.592 133.956, 177.458 133, 176.716 133 C 176.560 133, 173.972 135.588, 170.966 138.750 M 184.477 152.250 L 176.500 160.500 184.750 152.523 C 192.412 145.115, 193.456 144, 192.727 144 C 192.576 144, 188.864 147.713, 184.477 152.250 M 360.490 165.250 L 342.500 183.500 360.750 165.510 L 379 147.521 397.250 165.510 L 415.500 183.500 397.510 165.250 C 387.616 155.213, 379.286 147, 379 147 C 378.714 147, 370.384 155.213, 360.490 165.250 M 83.500 155 C 86.209 157.750, 88.650 160, 88.925 160 C 89.200 160, 87.209 157.750, 84.500 155 C 81.791 152.250, 79.350 150, 79.075 150 C 78.800 150, 80.791 152.250, 83.500 155 M 99 167.364 C 99 167.639, 100.350 168.825, 102 170 C 103.650 171.175, 105 171.911, 105 171.636 C 105 171.361, 103.650 170.175, 102 169 C 100.350 167.825, 99 167.089, 99 167.364 M 163.500 169.588 L 160.500 172.165 163.750 170.015 C 165.537 168.832, 167 167.669, 167 167.432 C 167 166.683, 166.577 166.944, 163.500 169.588 M 131.250 187.689 C 132.213 187.941, 133.787 187.941, 134.750 187.689 C 135.713 187.438, 134.925 187.232, 133 187.232 C 131.075 187.232, 130.287 187.438, 131.250 187.689 M 346.768 324.725 C 348.565 324.947, 351.265 324.943, 352.768 324.715 C 354.271 324.486, 352.800 324.304, 349.500 324.310 C 346.200 324.315, 344.971 324.502, 346.768 324.725 M 405.768 324.725 C 407.565 324.947, 410.265 324.943, 411.768 324.715 C 413.271 324.486, 411.800 324.304, 408.500 324.310 C 405.200 324.315, 403.971 324.502, 405.768 324.725 M 114.750 347 L 133 365.493 151.250 347 L 169.500 328.507 151.250 346.493 L 133 364.479 114.750 346.493 L 96.500 328.507 114.750 347 M 375.750 335.004 L 379 338.462 382.250 335.004 L 385.500 331.546 382.250 334.460 L 379 337.374 375.750 334.460 L 372.500 331.546 375.750 335.004 M 100.493 360.750 L 118.479 379 100.493 397.250 L 82.507 415.500 101 397.250 L 119.493 379 101 360.750 L 82.507 342.500 100.493 360.750 M 164.497 361.003 L 146.514 379.007 165.003 397.253 L 183.493 415.500 165.507 397.250 L 147.521 379 165.500 361 C 175.389 351.100, 183.254 343, 182.979 343 C 182.704 343, 174.387 351.102, 164.497 361.003 M 254.250 343.689 C 255.213 343.941, 256.788 343.941, 257.750 343.689 C 258.712 343.438, 257.925 343.232, 256 343.232 C 254.075 343.232, 253.287 343.438, 254.250 343.689 M 334.946 350.750 L 331.500 354.500 335.250 351.054 C 337.313 349.158, 339 347.471, 339 347.304 C 339 346.540, 338.154 347.260, 334.946 350.750 M 422 350.500 C 423.866 352.425, 425.617 354, 425.892 354 C 426.167 354, 424.866 352.425, 423 350.500 C 421.134 348.575, 419.383 347, 419.108 347 C 418.833 347, 420.134 348.575, 422 350.500 M 369.030 358.694 C 369.014 359.351, 370.012 360.948, 371.250 362.243 C 372.488 363.538, 373 363.901, 372.390 363.049 C 371.779 362.197, 370.781 360.600, 370.170 359.500 C 369.560 358.400, 369.047 358.037, 369.030 358.694 M 386.224 361.792 L 383.947 365.500 386.474 362.694 C 387.863 361.151, 389 359.464, 389 358.944 C 389 357.474, 388.663 357.820, 386.224 361.792 M 309.310 364.500 C 309.315 367.800, 309.502 369.029, 309.725 367.232 C 309.947 365.435, 309.943 362.735, 309.715 361.232 C 309.486 359.729, 309.304 361.200, 309.310 364.500 M 448.310 364.500 C 448.315 367.800, 448.502 369.029, 448.725 367.232 C 448.947 365.435, 448.943 362.735, 448.715 361.232 C 448.486 359.729, 448.304 361.200, 448.310 364.500 M 254.250 369.689 C 255.213 369.941, 256.788 369.941, 257.750 369.689 C 258.712 369.438, 257.925 369.232, 256 369.232 C 254.075 369.232, 253.287 369.438, 254.250 369.689 M 246.232 379 C 246.232 380.925, 246.438 381.712, 246.689 380.750 C 246.941 379.788, 246.941 378.212, 246.689 377.250 C 246.438 376.288, 246.232 377.075, 246.232 379 M 265.232 379 C 265.232 380.925, 265.438 381.712, 265.689 380.750 C 265.941 379.788, 265.941 378.212, 265.689 377.250 C 265.438 376.288, 265.232 377.075, 265.232 379 M 340 384.500 C 342.987 387.525, 345.657 390, 345.932 390 C 346.207 390, 343.987 387.525, 341 384.500 C 338.013 381.475, 335.343 379, 335.068 379 C 334.793 379, 337.013 381.475, 340 384.500 M 416.966 384.750 L 411.500 390.500 417.250 385.034 C 422.592 379.956, 423.458 379, 422.716 379 C 422.560 379, 419.972 381.587, 416.966 384.750 M 254.250 388.689 C 255.213 388.941, 256.788 388.941, 257.750 388.689 C 258.712 388.438, 257.925 388.232, 256 388.232 C 254.075 388.232, 253.287 388.438, 254.250 388.689 M 430.477 398.250 L 422.500 406.500 430.750 398.523 C 435.288 394.136, 439 390.424, 439 390.273 C 439 389.544, 437.885 390.588, 430.477 398.250 M 114.490 411.250 L 96.500 429.500 114.750 411.510 L 133 393.521 151.250 411.510 L 169.500 429.500 151.510 411.250 C 141.616 401.212, 133.286 393, 133 393 C 132.714 393, 124.384 401.212, 114.490 411.250 M 329.500 401 C 332.209 403.750, 334.650 406, 334.925 406 C 335.200 406, 333.209 403.750, 330.500 401 C 327.791 398.250, 325.350 396, 325.075 396 C 324.800 396, 326.791 398.250, 329.500 401 M 345 413.364 C 345 413.639, 346.350 414.825, 348 416 C 349.650 417.175, 351 417.911, 351 417.636 C 351 417.361, 349.650 416.175, 348 415 C 346.350 413.825, 345 413.089, 345 413.364 M 409.500 415.588 L 406.500 418.165 409.750 416.015 C 411.538 414.832, 413 413.669, 413 413.432 C 413 412.683, 412.577 412.944, 409.500 415.588 M 254.250 414.689 C 255.213 414.941, 256.788 414.941, 257.750 414.689 C 258.712 414.438, 257.925 414.232, 256 414.232 C 254.075 414.232, 253.287 414.438, 254.250 414.689 M 377.250 433.689 C 378.212 433.941, 379.788 433.941, 380.750 433.689 C 381.712 433.438, 380.925 433.232, 379 433.232 C 377.075 433.232, 376.288 433.438, 377.250 433.689" stroke="none" fill="#040404" fill-rule="evenodd"/><path d="M 114 101.313 C 114 101.485, 115.463 102.948, 117.250 104.563 L 120.500 107.500 117.563 104.250 C 114.825 101.221, 114 100.540, 114 101.313 M 148.437 104.250 L 145.500 107.500 148.750 104.563 C 151.779 101.825, 152.460 101, 151.687 101 C 151.515 101, 150.052 102.463, 148.437 104.250 M 131.250 120.689 C 132.213 120.941, 133.787 120.941, 134.750 120.689 C 135.713 120.438, 134.925 120.232, 133 120.232 C 131.075 120.232, 130.287 120.438, 131.250 120.689 M 166.437 142.250 L 163.500 145.500 166.750 142.563 C 169.779 139.825, 170.460 139, 169.687 139 C 169.515 139, 168.052 140.463, 166.437 142.250 M 360 347.313 C 360 347.485, 361.462 348.948, 363.250 350.563 L 366.500 353.500 363.563 350.250 C 360.825 347.221, 360 346.540, 360 347.313 M 394.437 350.250 L 391.500 353.500 394.750 350.563 C 397.779 347.825, 398.460 347, 397.687 347 C 397.515 347, 396.052 348.462, 394.437 350.250 M 377.250 366.689 C 378.212 366.941, 379.788 366.941, 380.750 366.689 C 381.712 366.438, 380.925 366.232, 379 366.232 C 377.075 366.232, 376.288 366.438, 377.250 366.689 M 412.437 388.250 L 409.500 391.500 412.750 388.563 C 414.538 386.948, 416 385.485, 416 385.313 C 416 384.540, 415.175 385.221, 412.437 388.250" stroke="none" fill="#c1d0ca" fill-rule="evenodd"/></svg>